<?xml version="1.0" standalone="no"?>
<!DOCTYPE svg PUBLIC "-//W3C//DTD SVG 20010904//EN"
 "http://www.w3.org/TR/2001/REC-SVG-20010904/DTD/svg10.dtd">
<svg version="1.0" xmlns="http://www.w3.org/2000/svg"
 width="1518.000000pt" height="1518.000000pt" viewBox="0 0 1518.000000 1518.000000"
 preserveAspectRatio="xMidYMid meet">
<metadata>
Created by potrace 1.11, written by Peter Selinger 2001-2013
</metadata>
<g transform="translate(0.000000,1518.000000) scale(0.100000,-0.100000)"
fill="#000000" stroke="none">
<path d="M455 13553 c-35 -9 -65 -44 -65 -77 0 -62 58 -210 165 -428 30 -60
51 -108 49 -108 -3 0 2 -7 10 -16 9 -8 14 -19 11 -24 -3 -5 -1 -10 4 -12 5 -1
11 -10 13 -18 2 -8 5 -17 9 -20 14 -13 67 -128 62 -134 -4 -3 -2 -6 4 -6 6 0
28 -33 48 -72 21 -40 42 -79 48 -86 5 -7 7 -15 3 -19 -3 -3 3 -13 15 -21 11
-8 18 -20 15 -28 -3 -8 -2 -14 2 -14 7 0 23 -27 81 -138 8 -15 19 -30 25 -34
6 -4 7 -8 3 -8 -5 0 1 -13 12 -29 12 -16 21 -32 21 -36 0 -4 9 -19 20 -35 11
-15 17 -30 13 -33 -3 -4 2 -9 11 -13 14 -5 14 -9 4 -22 -9 -11 -10 -14 -1 -9
8 5 23 -12 43 -50 17 -32 44 -80 60 -108 16 -27 34 -60 39 -72 5 -11 15 -24
20 -28 6 -3 11 -15 11 -26 0 -10 5 -19 10 -19 6 0 10 -9 10 -19 0 -10 7 -21
15 -25 8 -3 15 -12 15 -21 0 -8 5 -15 12 -15 6 0 8 -3 5 -6 -4 -4 2 -19 13
-34 11 -16 20 -33 20 -39 0 -6 4 -11 10 -11 5 0 12 -11 16 -25 3 -14 11 -25
17 -25 6 0 7 -3 4 -7 -4 -3 -1 -13 5 -21 14 -16 29 -41 54 -92 10 -19 20 -37
23 -40 4 -3 15 -21 25 -40 11 -19 26 -41 33 -48 7 -8 11 -17 8 -22 -3 -4 2
-13 10 -20 8 -7 15 -19 15 -26 0 -8 5 -14 10 -14 6 0 10 -5 10 -11 0 -6 9 -24
21 -40 11 -16 17 -29 12 -29 -4 0 0 -5 10 -11 9 -5 17 -16 17 -23 0 -8 7 -19
15 -26 9 -7 14 -19 11 -27 -3 -7 -2 -13 3 -13 4 0 30 -36 57 -81 27 -44 60
-94 72 -110 13 -16 20 -29 15 -29 -4 0 -3 -4 2 -8 13 -9 61 -86 110 -177 21
-38 49 -87 62 -107 12 -21 23 -42 23 -48 0 -5 5 -10 11 -10 5 0 8 -4 5 -9 -4
-5 -3 -11 1 -13 10 -4 73 -106 73 -117 0 -4 8 -16 18 -27 10 -10 29 -37 42
-59 13 -22 29 -43 34 -47 6 -4 7 -8 2 -8 -4 0 8 -20 28 -44 20 -24 36 -49 36
-55 0 -6 5 -11 10 -11 6 0 10 -7 10 -15 0 -9 7 -18 15 -21 8 -4 12 -10 9 -15
-3 -5 -1 -9 3 -9 5 0 17 -15 28 -32 10 -18 24 -38 29 -44 6 -7 20 -24 31 -40
11 -15 26 -33 33 -40 6 -7 12 -15 12 -18 0 -6 24 -36 48 -61 6 -8 12 -16 12
-20 0 -3 10 -16 23 -29 12 -13 29 -33 37 -46 8 -12 22 -31 32 -41 9 -11 31
-39 50 -61 18 -23 43 -52 56 -64 12 -13 22 -26 22 -29 0 -4 12 -20 28 -35 15
-16 32 -35 37 -42 41 -53 64 -76 69 -71 3 4 6 1 6 -5 0 -13 28 -45 138 -160
34 -36 62 -67 62 -68 0 -6 328 -331 408 -404 75 -69 172 -156 211 -189 l23
-20 -58 -118 c-32 -65 -58 -121 -56 -125 1 -5 -2 -8 -7 -8 -5 0 -12 -11 -15
-24 -3 -13 -22 -58 -41 -99 -19 -41 -35 -77 -35 -81 0 -3 -11 -29 -25 -58 -14
-28 -25 -55 -25 -59 0 -3 -8 -24 -17 -45 -9 -22 -17 -41 -18 -44 -1 -3 -7 -18
-13 -33 -7 -16 -12 -34 -12 -42 0 -7 -5 -15 -10 -17 -6 -2 -12 -13 -13 -26 0
-12 -5 -22 -9 -22 -4 0 -8 -6 -8 -14 0 -8 -5 -27 -11 -43 -6 -15 -11 -30 -11
-33 0 -3 -9 -22 -19 -42 -11 -21 -17 -38 -14 -38 3 0 -4 -19 -16 -42 -12 -24
-21 -44 -20 -45 0 -2 0 -5 0 -8 -3 -12 -6 -21 -12 -35 -24 -64 -57 -157 -57
-162 0 -4 -5 -19 -12 -35 -6 -15 -13 -37 -15 -47 -2 -11 -8 -25 -14 -33 -6 -7
-9 -13 -6 -13 4 0 -2 -20 -13 -45 -11 -25 -17 -45 -13 -45 3 0 0 -7 -7 -15 -7
-8 -10 -15 -6 -15 4 0 0 -13 -9 -30 -8 -16 -15 -31 -15 -32 1 -2 -1 -10 -4
-18 -2 -8 -17 -55 -31 -105 -15 -49 -45 -148 -67 -220 -21 -71 -41 -137 -43
-145 -2 -8 -4 -15 -5 -15 -1 0 -3 -7 -5 -15 -1 -8 -17 -67 -35 -130 -17 -63
-34 -123 -36 -132 -2 -10 -6 -26 -8 -35 -2 -10 -12 -47 -21 -83 -9 -36 -19
-76 -22 -90 -8 -41 -11 -55 -13 -55 -1 0 -3 -11 -6 -25 -2 -14 -13 -61 -24
-105 -10 -44 -22 -96 -25 -115 -3 -19 -15 -80 -25 -135 -11 -55 -21 -113 -24
-130 -11 -73 -19 -121 -22 -140 -2 -11 -7 -49 -10 -85 -3 -35 -7 -67 -9 -70
-9 -14 -19 -210 -19 -375 -1 -169 6 -287 18 -345 3 -14 9 -41 12 -60 5 -29 21
-94 69 -280 2 -8 19 -59 38 -112 19 -53 32 -100 29 -103 -3 -3 0 -5 6 -5 7 0
12 -8 12 -18 0 -10 3 -22 8 -26 4 -4 7 -11 7 -14 1 -13 43 -117 75 -187 18
-38 33 -76 33 -82 0 -7 4 -13 9 -13 4 0 8 -4 8 -10 0 -5 18 -48 40 -95 23 -46
40 -88 40 -91 -1 -4 2 -10 7 -13 4 -3 19 -31 33 -61 14 -30 27 -57 30 -60 3
-3 31 -54 62 -115 31 -60 71 -138 90 -172 18 -34 46 -85 62 -115 62 -115 89
-163 97 -174 5 -6 6 -14 2 -17 -3 -4 -1 -7 5 -7 7 0 12 -9 12 -19 0 -11 4 -21
9 -23 15 -6 96 -184 111 -243 9 -41 -9 -194 -30 -249 -5 -15 -8 -26 -6 -26 6
0 -67 -267 -108 -400 -20 -63 -39 -126 -42 -139 -3 -13 -10 -34 -16 -45 -6
-12 -11 -22 -10 -23 1 -2 2 -4 1 -5 -2 -8 -9 -36 -14 -60 l-5 -28 5549 0
c4436 0 5550 3 5546 13 -2 6 -6 44 -9 82 -3 39 -10 115 -16 170 -6 55 -13 127
-16 160 -3 33 -7 71 -10 85 -2 14 -7 54 -10 90 -2 36 -7 76 -10 90 -3 14 -7
48 -10 75 -2 28 -11 99 -19 158 -8 60 -17 127 -20 150 -6 50 -13 93 -19 127
-2 14 -7 48 -10 77 -3 28 -8 57 -10 65 -3 7 -7 37 -11 67 -3 30 -8 64 -10 75
-2 12 -6 35 -9 51 -15 104 -19 127 -47 285 -11 63 -22 132 -25 153 -7 42 -8
50 -17 87 -3 14 -16 77 -28 140 -12 63 -22 120 -24 125 -3 17 -15 79 -19 105
-2 14 -11 55 -20 93 -9 37 -18 82 -21 100 -9 49 -103 464 -125 547 -18 69 -41
165 -46 190 -2 14 -6 35 -9 47 -3 13 -6 25 -6 28 0 2 -5 19 -10 37 -6 18 -12
44 -15 58 -3 14 -7 33 -10 42 -3 9 -6 25 -8 35 -7 31 -106 426 -121 478 -19
67 -66 246 -70 265 -2 8 -4 16 -5 18 -2 1 -3 5 -4 10 -1 4 -5 13 -9 20 -5 6
-6 12 -3 12 3 0 1 11 -4 25 -5 14 -12 36 -14 48 -6 27 -36 136 -44 157 -3 8
-6 20 -8 25 -4 18 -33 119 -49 175 -9 30 -18 62 -20 70 -2 8 -16 58 -31 110
-14 52 -28 102 -30 110 -2 8 -10 40 -19 70 -9 30 -18 63 -20 72 -2 9 -13 51
-25 93 -12 42 -23 84 -25 93 -2 9 -16 60 -30 112 -15 52 -28 102 -30 111 -2 9
-10 37 -19 63 -9 25 -18 60 -21 78 -4 18 -11 36 -18 40 -7 4 -9 8 -4 8 4 0 1
16 -7 35 -8 19 -12 35 -9 35 3 0 0 7 -7 15 -7 8 -10 15 -6 15 4 0 0 13 -9 30
-8 16 -15 32 -15 35 0 3 -7 21 -15 41 -8 20 -15 40 -15 44 0 10 -87 215 -126
296 -16 32 -29 61 -29 64 0 3 -3 10 -7 15 -9 15 -40 72 -74 135 -16 30 -31 57
-34 60 -3 3 -12 19 -20 35 -8 17 -23 39 -32 49 -10 11 -18 26 -18 33 0 7 -4
13 -8 13 -4 0 -16 14 -26 31 -15 26 -16 33 -5 40 8 5 17 9 20 9 4 0 36 18 70
40 35 22 71 43 79 47 49 22 310 190 322 208 4 5 8 7 8 3 0 -5 9 0 19 10 34 31
51 43 51 37 0 -4 24 14 54 40 6 6 27 22 46 35 19 13 37 27 40 30 3 3 41 34 85
70 44 36 97 80 117 99 21 18 48 41 60 49 12 9 47 41 78 72 30 30 68 66 84 78
16 12 26 22 23 22 -2 0 34 40 82 89 47 49 100 107 118 128 18 21 45 52 60 70
15 17 35 40 43 50 8 10 33 41 55 68 21 28 44 53 50 57 5 4 7 8 2 8 -4 0 13 24
37 54 24 30 52 68 62 85 10 17 22 31 26 31 4 0 8 7 8 15 0 8 5 15 10 15 6 0
10 7 10 15 0 8 3 15 8 15 4 0 13 13 20 29 7 16 23 40 35 53 12 13 38 44 57 68
19 24 46 56 60 71 14 15 26 33 28 40 2 8 7 16 11 19 4 3 36 43 70 90 35 47 67
87 72 88 5 2 9 10 9 18 0 9 5 12 12 8 7 -4 8 -3 4 4 -4 7 4 24 18 39 15 15 26
33 26 40 0 7 5 13 10 13 6 0 10 7 10 15 0 8 8 15 17 15 9 0 14 3 10 6 -3 3 17
37 44 75 27 38 49 72 49 74 0 3 11 18 24 32 14 15 23 30 20 35 -3 4 -1 8 4 8
4 0 41 49 81 110 40 60 77 107 82 104 5 -3 9 332 9 820 l0 825 -45 -14 c-25
-7 -49 -13 -53 -14 -13 -1 -107 -22 -122 -28 -8 -3 -25 -7 -38 -9 -50 -6 -411
-114 -642 -190 -8 -3 -17 -6 -20 -6 -3 -1 -21 -8 -40 -16 -19 -8 -46 -16 -60
-19 -14 -2 -29 -8 -35 -14 -5 -5 -15 -9 -21 -9 -7 0 -25 -5 -41 -12 -15 -6
-32 -12 -38 -14 -26 -8 -103 -36 -130 -48 -16 -8 -48 -19 -70 -26 -22 -7 -44
-15 -50 -19 -5 -3 -12 -6 -15 -6 -3 -1 -22 -9 -44 -18 -21 -9 -42 -17 -46 -17
-4 0 -25 -8 -46 -17 -22 -9 -41 -17 -44 -18 -19 -6 -49 -19 -72 -31 -16 -8
-28 -13 -28 -9 0 3 -11 -2 -25 -11 -14 -9 -25 -13 -25 -10 0 4 -10 1 -22 -6
-13 -7 -25 -12 -28 -13 -3 0 -24 -8 -45 -17 -22 -9 -69 -29 -105 -44 -36 -14
-80 -33 -97 -41 -18 -7 -34 -12 -36 -11 -1 2 -14 -4 -27 -12 -14 -9 -52 -26
-85 -39 -33 -12 -72 -29 -87 -37 -14 -8 -33 -14 -42 -14 -9 0 -16 -5 -16 -12
0 -6 -3 -8 -6 -5 -4 3 -16 1 -28 -5 -11 -7 -23 -13 -26 -13 -7 -2 -41 -17
-115 -50 -91 -41 -109 -48 -117 -47 -5 1 -8 -2 -8 -8 0 -6 -3 -9 -7 -8 -11 2
-60 -18 -105 -43 -21 -11 -40 -20 -43 -20 -2 0 -26 -9 -52 -21 -27 -12 -51
-21 -55 -20 -5 1 -8 -2 -8 -8 0 -6 -3 -9 -7 -8 -5 1 -21 -5 -38 -12 -16 -7
-32 -14 -35 -15 -3 -1 -23 -10 -45 -20 -22 -10 -42 -19 -45 -20 -3 -2 -15 -6
-27 -10 -13 -4 -23 -11 -23 -16 0 -5 -3 -8 -7 -7 -10 2 -54 -16 -117 -48 -28
-13 -56 -24 -63 -24 -7 0 -13 -5 -13 -10 0 -6 -3 -9 -7 -8 -5 1 -35 -11 -68
-27 -33 -16 -63 -28 -67 -27 -5 1 -8 -2 -8 -8 0 -6 -3 -9 -7 -8 -5 1 -30 -9
-58 -22 -27 -13 -52 -25 -55 -26 -37 -11 -70 -28 -70 -37 0 -6 -3 -8 -6 -4 -4
3 -21 -1 -38 -10 -17 -10 -34 -16 -38 -15 -5 1 -8 -3 -8 -10 0 -6 -3 -8 -6 -5
-7 7 -64 -21 -75 -36 -3 -5 -8 -8 -10 -7 -2 1 -17 -3 -32 -9 -16 -6 -33 -11
-38 -11 -5 0 -9 -5 -9 -10 0 -6 -3 -9 -7 -8 -5 1 -19 -4 -33 -9 -54 -23 -623
-300 -869 -422 l-260 -131 -103 25 c-116 27 -322 58 -508 76 -164 15 -1037 21
-1305 9 -609 -28 -1178 -73 -1887 -151 -342 -38 -378 -40 -392 -26 -9 9 -16
18 -16 22 0 4 -35 50 -77 103 -285 355 -709 735 -1258 1128 -218 157 -498 344
-514 344 -6 0 -11 5 -11 10 0 6 -6 10 -13 10 -7 0 -23 9 -35 20 -12 11 -24 20
-27 20 -3 0 -32 17 -63 37 -67 44 -108 69 -139 85 -13 6 -23 15 -23 20 0 5 -4
6 -10 3 -6 -3 -10 -1 -10 4 0 6 -4 11 -9 11 -8 0 -212 119 -221 129 -3 3 -21
14 -40 23 -44 23 -73 41 -81 51 -3 5 -8 7 -10 5 -2 -1 -22 8 -44 21 -41 25
-54 33 -129 73 -22 13 -43 25 -46 28 -5 5 -25 16 -125 69 -27 14 -53 30 -56
34 -3 5 -9 8 -13 7 -3 0 -34 15 -69 34 -98 54 -188 103 -237 127 -25 12 -48
27 -52 33 -4 6 -8 7 -8 3 0 -5 -15 0 -32 11 -18 11 -89 48 -158 82 -69 35
-128 67 -131 72 -3 5 -9 9 -13 9 -11 -2 -101 43 -108 53 -4 6 -8 8 -8 4 0 -4
-63 24 -140 62 -77 39 -142 69 -144 67 -2 -1 -13 7 -25 17 -12 11 -21 16 -21
13 0 -4 -34 11 -75 32 -40 22 -90 44 -110 51 -19 6 -35 16 -35 21 0 5 -6 9
-14 9 -8 0 -52 16 -98 36 -46 19 -87 37 -93 38 -12 4 -63 23 -90 35 -11 5 -47
19 -80 31 -33 12 -69 26 -80 32 -12 5 -27 10 -35 12 -8 2 -22 6 -30 9 -8 4
-73 25 -145 48 -71 24 -132 45 -135 48 -3 3 -14 7 -25 7 -11 1 -60 9 -109 18
-89 16 -123 18 -161 9z"/>
</g>
</svg>
